<?xml version="1.0" ?><svg enable-background="new 0 0 40 40" id="Слой_1" version="1.1" viewBox="0 0 40 40" xml:space="preserve" xmlns="http://www.w3.org/2000/svg" xmlns:xlink="http://www.w3.org/1999/xlink"><g><path d="M20,40C9,40,0,31,0,20S9,0,20,0s20,9,20,20S31,40,20,40z M20,2C10.1,2,2,10.1,2,20s8.1,18,18,18s18-8.1,18-18S29.9,2,20,2z   " fill="#dff1ff"/></g><g><path d="M27,28H13c-0.6,0-1-0.4-1-1V13c0-0.6,0.4-1,1-1h7c0.6,0,1,0.4,1,1s-0.4,1-1,1h-6v12h12V14h-0.8c-0.6,0-1-0.4-1-1s0.4-1,1-1   H27c0.6,0,1,0.4,1,1v14C28,27.6,27.6,28,27,28z" fill="#dff1ff"/></g></svg>